<mxfile host="app.diagrams.net" modified="2024-04-19T19:13:17.580Z" agent="Mozilla/5.0 (Windows NT 10.0; Win64; x64) AppleWebKit/537.36 (KHTML, like Gecko) Chrome/123.0.0.0 Safari/537.36" etag="ci1jsQm0r-jZsbjS5Kj_" version="24.2.5" type="device">
  <diagram name="Page-1" id="Gxgx46LrSy2UfMOH8TyQ">
    <mxGraphModel dx="882" dy="578" grid="1" gridSize="10" guides="1" tooltips="1" connect="1" arrows="1" fold="1" page="1" pageScale="1" pageWidth="850" pageHeight="1100" math="0" shadow="0">
      <root>
        <mxCell id="0" />
        <mxCell id="1" parent="0" />
        <mxCell id="En_J9dc1a75HtVQFhdk0-1" value="" style="swimlane;startSize=0;" parent="1" vertex="1">
          <mxGeometry x="320" y="80" width="160" height="240" as="geometry" />
        </mxCell>
        <mxCell id="En_J9dc1a75HtVQFhdk0-3" value="App server" style="rounded=1;whiteSpace=wrap;html=1;" parent="En_J9dc1a75HtVQFhdk0-1" vertex="1">
          <mxGeometry x="40" y="120" width="80" height="40" as="geometry" />
        </mxCell>
        <mxCell id="En_J9dc1a75HtVQFhdk0-4" value="US East" style="text;html=1;align=center;verticalAlign=middle;whiteSpace=wrap;rounded=0;" parent="En_J9dc1a75HtVQFhdk0-1" vertex="1">
          <mxGeometry y="210" width="160" height="30" as="geometry" />
        </mxCell>
        <mxCell id="En_J9dc1a75HtVQFhdk0-5" value="10.50.0.0/26" style="text;html=1;align=center;verticalAlign=middle;whiteSpace=wrap;rounded=0;" parent="En_J9dc1a75HtVQFhdk0-1" vertex="1">
          <mxGeometry y="170" width="160" height="30" as="geometry" />
        </mxCell>
        <mxCell id="En_J9dc1a75HtVQFhdk0-11" value="" style="swimlane;startSize=0;" parent="1" vertex="1">
          <mxGeometry x="80" y="80" width="160" height="240" as="geometry" />
        </mxCell>
        <mxCell id="En_J9dc1a75HtVQFhdk0-13" value="App server" style="rounded=1;whiteSpace=wrap;html=1;" parent="En_J9dc1a75HtVQFhdk0-11" vertex="1">
          <mxGeometry x="40" y="120" width="80" height="40" as="geometry" />
        </mxCell>
        <mxCell id="En_J9dc1a75HtVQFhdk0-14" value="US West" style="text;html=1;align=center;verticalAlign=middle;whiteSpace=wrap;rounded=0;" parent="En_J9dc1a75HtVQFhdk0-11" vertex="1">
          <mxGeometry y="210" width="160" height="30" as="geometry" />
        </mxCell>
        <mxCell id="En_J9dc1a75HtVQFhdk0-15" value="10.10.0.0/26" style="text;html=1;align=center;verticalAlign=middle;whiteSpace=wrap;rounded=0;" parent="En_J9dc1a75HtVQFhdk0-11" vertex="1">
          <mxGeometry y="170" width="160" height="30" as="geometry" />
        </mxCell>
        <mxCell id="Lwc2H5HBh2yFtPDu133o-1" style="edgeStyle=orthogonalEdgeStyle;rounded=0;orthogonalLoop=1;jettySize=auto;html=1;exitX=0.5;exitY=0;exitDx=0;exitDy=0;entryX=0.5;entryY=0;entryDx=0;entryDy=0;" edge="1" parent="1" source="En_J9dc1a75HtVQFhdk0-13" target="En_J9dc1a75HtVQFhdk0-3">
          <mxGeometry relative="1" as="geometry">
            <Array as="points">
              <mxPoint x="160" y="160" />
              <mxPoint x="400" y="160" />
            </Array>
          </mxGeometry>
        </mxCell>
        <mxCell id="Lwc2H5HBh2yFtPDu133o-6" style="edgeStyle=orthogonalEdgeStyle;rounded=0;orthogonalLoop=1;jettySize=auto;html=1;exitX=0.5;exitY=0;exitDx=0;exitDy=0;entryX=0.5;entryY=0;entryDx=0;entryDy=0;" edge="1" parent="1" source="En_J9dc1a75HtVQFhdk0-3" target="En_J9dc1a75HtVQFhdk0-13">
          <mxGeometry relative="1" as="geometry">
            <Array as="points">
              <mxPoint x="400" y="160" />
              <mxPoint x="160" y="160" />
            </Array>
          </mxGeometry>
        </mxCell>
        <mxCell id="Lwc2H5HBh2yFtPDu133o-7" value="Auto peer" style="text;html=1;align=center;verticalAlign=middle;whiteSpace=wrap;rounded=0;" vertex="1" parent="1">
          <mxGeometry x="240" y="130" width="80" height="30" as="geometry" />
        </mxCell>
      </root>
    </mxGraphModel>
  </diagram>
</mxfile>
